<svg width="175" height="100" viewBox="0 0 175 100" fill="none" xmlns="http://www.w3.org/2000/svg">
<path d="M56.5786 8.11539L95.2976 45.1274C97.9652 47.6774 97.9652 51.9379 95.2976 54.4879L56.5786 91.5C54.0758 93.8925 50.1336 93.8925 47.6308 91.5L8.91183 54.4879C6.24422 51.9379 6.24422 47.6774 8.91183 45.1274L47.6308 8.11539C50.1336 5.72289 54.0758 5.72289 56.5786 8.11539Z" fill="#73F5AD" stroke="#434343" stroke-width="5.54968"/>
<path d="M66.4703 37.9992V63.874H61.1781V48.992C61.1781 48.6487 61.1841 48.2757 61.1959 47.8732C61.2196 47.4706 61.2551 47.0622 61.3025 46.6478L54.4297 59.9493C54.2166 60.3637 53.9266 60.6774 53.5595 60.8905C53.2044 61.1036 52.7959 61.2102 52.3342 61.2102H51.5173C51.0555 61.2102 50.6412 61.1036 50.2741 60.8905C49.919 60.6774 49.6348 60.3637 49.4217 59.9493L42.549 46.6123C42.5845 47.0385 42.6141 47.4588 42.6378 47.8732C42.6614 48.2757 42.6733 48.6487 42.6733 48.992V63.874H37.3811V37.9992H41.9629C42.2234 37.9992 42.4483 38.0051 42.6378 38.0169C42.839 38.0288 43.0166 38.0643 43.1705 38.1235C43.3244 38.1827 43.4606 38.2774 43.579 38.4076C43.7092 38.526 43.8335 38.6977 43.9519 38.9226L50.6116 52.0465C50.8483 52.4964 51.0733 52.9641 51.2864 53.4495C51.5113 53.9349 51.7244 54.4322 51.9257 54.9413C52.127 54.4203 52.3342 53.9112 52.5473 53.414C52.7722 52.9167 53.009 52.4432 53.2576 51.9933L59.8995 38.9226C60.0179 38.6977 60.1363 38.526 60.2547 38.4076C60.3849 38.2774 60.527 38.1827 60.6809 38.1235C60.8348 38.0643 61.0065 38.0288 61.1959 38.0169C61.3972 38.0051 61.628 37.9992 61.8885 37.9992H66.4703Z" fill="#434343"/>
<path d="M127.369 8.11539L166.088 45.1274C168.756 47.6774 168.756 51.9379 166.088 54.4879L127.369 91.5C124.866 93.8925 120.924 93.8925 118.421 91.5L79.7024 54.4879C77.0348 51.9379 77.0348 47.6774 79.7024 45.1274L118.421 8.11539C120.924 5.72289 124.866 5.72289 127.369 8.11539Z" fill="#434343" stroke="#73F5AD" stroke-width="5.54968"/>
<path d="M125.922 63.874H119.884V37.9992H125.922V63.874Z" fill="#73F5AD"/>
</svg>
